<?xml version="1.0" encoding="utf-8"?>
<!-- Generator: Adobe Illustrator 21.0.2, SVG Export Plug-In . SVG Version: 6.00 Build 0)  -->
<svg version="1.1" id="Layer_1" xmlns="http://www.w3.org/2000/svg" xmlns:xlink="http://www.w3.org/1999/xlink" x="0px" y="0px"
	 viewBox="0 0 66 65" style="enable-background:new 0 0 66 65;" xml:space="preserve">
<style type="text/css">
	.st0{fill:#EC1C24;}
</style>
<path class="st0" d="M32.7,2.2C16,2.2,2.4,15.7,2.4,32.5c0,16.7,13.6,30.3,30.3,30.3S63,49.2,63,32.5C63,15.7,49.4,2.2,32.7,2.2z
	 M52.6,33.8L34.5,52.2c-1,1-2.7,1-3.7,0l-17.5-18l10.8,0.2l8.6,9L44.3,32l-9.9,5.8c-1,0.6-2.2,0.4-3.1-0.4l-3.5-3.5
	c-0.8-0.8-1-2.1-0.4-3.1l5.8-9.8L24,30.1l-10.5,0l17.6-17.6c0.8-0.8,2.1-0.8,2.9,0l6.4,6.2c1.2,1.2,1.3,3.1,0.3,4.4l-5.5,6.9
	l7.1-5.6c1.3-1,3-0.9,4.2,0.2l6,5.9C53.5,31.3,53.5,32.8,52.6,33.8z"/>
</svg>
